<svg width="16" height="18" viewBox="0 0 16 18" fill="none" xmlns="http://www.w3.org/2000/svg">
<path d="M15.6783 12.2984C15.6021 12.0846 15.5131 11.8778 15.4285 11.6862C15.2981 11.3914 15.1616 11.096 15.0296 10.8106L15.0191 10.7879C13.8415 8.23769 12.5775 5.65261 11.2623 3.10453L11.2065 2.99634C11.0723 2.73614 10.9337 2.4671 10.7913 2.20274C10.6225 1.86819 10.4177 1.55299 10.1805 1.26272C9.91354 0.944195 9.57976 0.688018 9.20278 0.512257C8.82581 0.336496 8.41475 0.245483 7.99866 0.245483C7.58257 0.245483 7.17157 0.336704 6.7946 0.512559C6.41767 0.688415 6.08395 0.944678 5.81705 1.26327C5.58013 1.55361 5.37544 1.86874 5.20661 2.20312C5.06304 2.46985 4.92306 2.74139 4.78769 3.00399L4.73585 3.1045C3.42065 5.65277 2.15667 8.23785 0.979044 10.7878L0.961886 10.8249C0.832133 11.1058 0.69798 11.3962 0.569811 11.6861C0.485115 11.8775 0.396228 12.0842 0.319987 12.2985C0.101619 12.8824 0.0320344 13.5112 0.117489 14.1286C0.208112 14.7525 0.460446 15.3419 0.849498 15.8385C1.23855 16.3351 1.75083 16.7217 2.33558 16.9599C2.77726 17.1386 3.24952 17.2299 3.72611 17.2288C3.87582 17.2288 4.0254 17.2201 4.1741 17.2028C4.77687 17.126 5.35821 16.9298 5.88402 16.6259C6.57376 16.2384 7.25495 15.6705 7.99909 14.859C8.74322 15.6705 9.42442 16.2384 10.1142 16.6259C10.6399 16.9299 11.2213 17.126 11.8241 17.2028C11.9728 17.2201 12.1224 17.2288 12.2721 17.2288C12.7486 17.2299 13.2208 17.1386 13.6625 16.9599C14.2473 16.7217 14.7596 16.3351 15.1487 15.8385C15.5377 15.3419 15.7901 14.7525 15.8807 14.1286C15.9661 13.5112 15.8965 12.8823 15.6783 12.2984ZM7.99909 13.1831C7.0779 12.0154 6.48677 10.9311 6.27936 10.0221C6.19439 9.68144 6.17433 9.32792 6.22024 8.97987C6.25649 8.72474 6.35022 8.48114 6.49436 8.26736C6.67173 8.03734 6.89968 7.85106 7.16059 7.72288C7.42149 7.59477 7.70841 7.52811 7.99919 7.52811C8.29003 7.52811 8.57689 7.59482 8.8378 7.72304C9.09871 7.85121 9.3266 8.0375 9.50397 8.26752C9.64812 8.4814 9.74185 8.72501 9.77809 8.98018C9.8239 9.32839 9.80378 9.68202 9.71865 10.0227C9.51103 10.9317 8.92006 12.0157 7.99909 13.1831ZM14.8048 13.9749C14.7414 14.4111 14.565 14.8233 14.293 15.1705C14.0209 15.5177 13.6627 15.788 13.2538 15.9546C12.8404 16.1202 12.3917 16.1789 11.9495 16.1252C11.4899 16.066 11.0469 15.9147 10.6472 15.6804C10.0333 15.3355 9.41178 14.806 8.71244 14.0292C9.82575 12.6564 10.521 11.3911 10.7784 10.2641C10.8942 9.79013 10.9193 9.29862 10.8524 8.81544C10.7917 8.39919 10.6371 8.0021 10.4004 7.6541C10.1231 7.27866 9.76138 6.97344 9.34433 6.76311C8.92723 6.55278 8.4665 6.44319 7.99919 6.44319C7.53194 6.44319 7.07116 6.55273 6.65406 6.76301C6.23696 6.97328 5.87521 7.27845 5.59791 7.65389C5.36124 8.00178 5.20671 8.39877 5.14594 8.81491C5.07898 9.29793 5.10396 9.78918 5.21955 10.263C5.47679 11.3904 6.17205 12.6561 7.28573 14.0293C6.58639 14.806 5.96491 15.3355 5.35095 15.6804C4.95131 15.9147 4.50836 16.066 4.04868 16.1252C3.60642 16.1789 3.15774 16.1202 2.74428 15.9546C2.33541 15.788 1.97723 15.5177 1.7052 15.1705C1.43319 14.8233 1.25678 14.4111 1.19344 13.9749C1.13252 13.5315 1.18436 13.0799 1.3442 12.6617C1.40496 12.4909 1.47606 12.3233 1.56415 12.1242C1.68876 11.8425 1.821 11.5561 1.94892 11.2793L1.9661 11.242C3.13714 8.70633 4.39411 6.13563 5.70214 3.60126L5.75421 3.50036C5.88737 3.24199 6.02509 2.97485 6.16404 2.71672C6.29693 2.45067 6.4578 2.19948 6.64392 1.96738C6.80882 1.76816 7.0158 1.60777 7.25002 1.49766C7.48428 1.38754 7.73999 1.33041 7.99888 1.33041C8.25777 1.33041 8.51352 1.38746 8.74774 1.49753C8.982 1.60761 9.18898 1.76797 9.35394 1.96717C9.54017 2.19908 9.70109 2.45019 9.83387 2.71623C9.97155 2.97207 10.108 3.2368 10.2401 3.4928L10.296 3.60137C11.604 6.13547 12.8609 8.70611 14.0321 11.2423L14.0427 11.2651C14.1728 11.5466 14.3073 11.8376 14.434 12.1243C14.5222 12.3237 14.5935 12.4914 14.6541 12.6616C14.8138 13.0798 14.8657 13.5314 14.8048 13.9749Z" fill="#FF385C"/>
</svg>
