<svg width="44" height="10" viewBox="0 0 44 10" fill="none" xmlns="http://www.w3.org/2000/svg">
<path d="M3.03835 4.63636C3.03835 4.17898 3.15057 3.76136 3.375 3.38352C3.59943 3.00568 3.89915 2.70597 4.27415 2.48438C4.65199 2.25994 5.0696 2.14773 5.52699 2.14773C5.92472 2.14773 6.29261 2.23437 6.63068 2.40767C6.96875 2.57812 7.24858 2.8125 7.47017 3.1108C7.69176 3.40909 7.8267 3.74432 7.875 4.11648H6.76705C6.71591 3.85227 6.57102 3.63636 6.33239 3.46875C6.09659 3.2983 5.82813 3.21307 5.52699 3.21307C5.26563 3.21307 5.02699 3.27699 4.81108 3.40483C4.59517 3.53267 4.4233 3.70455 4.29545 3.92045C4.16761 4.13352 4.10369 4.37216 4.10369 4.63636C4.10369 4.89773 4.16761 5.13636 4.29545 5.35227C4.4233 5.56818 4.59517 5.74006 4.81108 5.8679C5.02699 5.99574 5.26563 6.05966 5.52699 6.05966C5.82813 6.05966 6.08523 5.97585 6.2983 5.80824C6.51136 5.63778 6.64489 5.42045 6.69886 5.15625H7.80682C7.75852 5.52841 7.62926 5.86364 7.41903 6.16193C7.20881 6.46023 6.94034 6.69602 6.61364 6.86932C6.28693 7.03977 5.92472 7.125 5.52699 7.125C5.0696 7.125 4.65199 7.0142 4.27415 6.79261C3.89915 6.56818 3.59943 6.26705 3.375 5.8892C3.15057 5.51136 3.03835 5.09375 3.03835 4.63636ZM5.48864 9.13636C4.86932 9.13636 4.28693 9.01989 3.74148 8.78693C3.19886 8.55398 2.72017 8.23153 2.3054 7.8196C1.89347 7.40483 1.5696 6.92614 1.33381 6.38352C1.10085 5.84091 0.985795 5.25852 0.988636 4.63636C0.991477 4.0142 1.10938 3.43182 1.34233 2.8892C1.57813 2.34659 1.90199 1.86932 2.31392 1.45739C2.72585 1.04261 3.20313 0.71875 3.74574 0.485795C4.28835 0.252841 4.86932 0.136364 5.48864 0.136364C6.1108 0.136364 6.69318 0.252841 7.2358 0.485795C7.78125 0.71875 8.25852 1.04261 8.66761 1.45739C9.07955 1.86932 9.40199 2.34659 9.63494 2.8892C9.8679 3.43182 9.9858 4.0142 9.98864 4.63636C9.99148 5.25852 9.87642 5.84091 9.64347 6.38352C9.41051 6.92614 9.08807 7.40483 8.67614 7.8196C8.2642 8.23153 7.78551 8.55398 7.24006 8.78693C6.6946 9.01989 6.1108 9.13636 5.48864 9.13636ZM5.48864 8.00284C5.95455 8.00284 6.39205 7.91619 6.80114 7.7429C7.21023 7.5696 7.56818 7.32955 7.875 7.02273C8.18466 6.71307 8.42614 6.35511 8.59943 5.94886C8.77273 5.53977 8.85795 5.10369 8.85511 4.64062C8.85511 4.17472 8.76705 3.73722 8.59091 3.32812C8.41761 2.91903 8.17614 2.56108 7.86648 2.25426C7.55966 1.9446 7.20312 1.70312 6.79688 1.52983C6.39062 1.35653 5.95455 1.26989 5.48864 1.26989C5.02557 1.26989 4.59091 1.35653 4.18466 1.52983C3.77841 1.70312 3.42045 1.9446 3.1108 2.25426C2.80398 2.56392 2.5625 2.9233 2.38636 3.33239C2.21023 3.73864 2.12216 4.17472 2.12216 4.64062C2.11932 5.10085 2.20455 5.53551 2.37784 5.9446C2.55398 6.35085 2.79545 6.70881 3.10227 7.01847C3.41193 7.32528 3.76989 7.56676 4.17614 7.7429C4.58523 7.91619 5.02273 8.00284 5.48864 8.00284ZM14.9957 9V8.04545L17.9489 4.9858C18.2642 4.65341 18.5241 4.36222 18.7287 4.11222C18.9361 3.85937 19.0909 3.61932 19.1932 3.39205C19.2955 3.16477 19.3466 2.9233 19.3466 2.66761C19.3466 2.37784 19.2784 2.12784 19.142 1.91761C19.0057 1.70455 18.8196 1.54119 18.5838 1.42756C18.348 1.31108 18.0824 1.25284 17.7869 1.25284C17.4744 1.25284 17.2017 1.31676 16.9688 1.4446C16.7358 1.57244 16.5568 1.75284 16.4318 1.9858C16.3068 2.21875 16.2443 2.49148 16.2443 2.80398H14.9872C14.9872 2.27273 15.1094 1.80824 15.3537 1.41051C15.598 1.01278 15.9332 0.704545 16.3594 0.485795C16.7855 0.264204 17.2699 0.153409 17.8125 0.153409C18.3608 0.153409 18.8438 0.262784 19.2614 0.481534C19.6818 0.697443 20.0099 0.992897 20.2457 1.3679C20.4815 1.74006 20.5994 2.16051 20.5994 2.62926C20.5994 2.95312 20.5384 3.26989 20.4162 3.57955C20.2969 3.8892 20.0881 4.23437 19.7898 4.61506C19.4915 4.9929 19.0767 5.4517 18.5455 5.99148L16.8111 7.80682V7.87074H20.7401V9H14.9957ZM25.3935 9.14489C24.7202 9.14205 24.1449 8.96449 23.6676 8.61222C23.1903 8.25994 22.8253 7.74716 22.5724 7.07386C22.3196 6.40057 22.1932 5.58949 22.1932 4.64062C22.1932 3.6946 22.3196 2.88636 22.5724 2.21591C22.8281 1.54545 23.1946 1.03409 23.6719 0.681818C24.152 0.329545 24.7259 0.153409 25.3935 0.153409C26.0611 0.153409 26.6335 0.330966 27.1108 0.686079C27.5881 1.03835 27.9531 1.54972 28.206 2.22017C28.4616 2.88778 28.5895 3.6946 28.5895 4.64062C28.5895 5.59233 28.4631 6.40483 28.2102 7.07812C27.9574 7.74858 27.5923 8.26136 27.1151 8.61648C26.6378 8.96875 26.0639 9.14489 25.3935 9.14489ZM25.3935 8.0071C25.9844 8.0071 26.446 7.71875 26.7784 7.14205C27.1136 6.56534 27.2812 5.73153 27.2812 4.64062C27.2812 3.91619 27.2045 3.30398 27.0511 2.80398C26.9006 2.30114 26.6832 1.92045 26.3991 1.66193C26.1179 1.40057 25.7827 1.26989 25.3935 1.26989C24.8054 1.26989 24.3438 1.55966 24.0085 2.1392C23.6733 2.71875 23.5043 3.55256 23.5014 4.64062C23.5014 5.3679 23.5767 5.98295 23.7273 6.4858C23.8807 6.9858 24.098 7.36506 24.3793 7.62358C24.6605 7.87926 24.9986 8.0071 25.3935 8.0071ZM30.1012 9V8.04545L33.0543 4.9858C33.3697 4.65341 33.6296 4.36222 33.8342 4.11222C34.0415 3.85937 34.1964 3.61932 34.2987 3.39205C34.4009 3.16477 34.4521 2.9233 34.4521 2.66761C34.4521 2.37784 34.3839 2.12784 34.2475 1.91761C34.1112 1.70455 33.9251 1.54119 33.6893 1.42756C33.4535 1.31108 33.1879 1.25284 32.8924 1.25284C32.5799 1.25284 32.3072 1.31676 32.0742 1.4446C31.8413 1.57244 31.6623 1.75284 31.5373 1.9858C31.4123 2.21875 31.3498 2.49148 31.3498 2.80398H30.0927C30.0927 2.27273 30.2148 1.80824 30.4592 1.41051C30.7035 1.01278 31.0387 0.704545 31.4648 0.485795C31.891 0.264204 32.3754 0.153409 32.918 0.153409C33.4663 0.153409 33.9492 0.262784 34.3668 0.481534C34.7873 0.697443 35.1154 0.992897 35.3512 1.3679C35.587 1.74006 35.7049 2.16051 35.7049 2.62926C35.7049 2.95312 35.6438 3.26989 35.5217 3.57955C35.4023 3.8892 35.1935 4.23437 34.8952 4.61506C34.5969 4.9929 34.1822 5.4517 33.6509 5.99148L31.9165 7.80682V7.87074H35.8455V9H30.1012ZM37.0898 7.29545V6.23011L40.8612 0.272727H41.7006V1.84091H41.168L38.4705 6.1108V6.17898H43.6396V7.29545H37.0898ZM41.2276 9V6.97159L41.2362 6.4858V0.272727H42.4847V9H41.2276Z" fill="#7F8EA3"/>
</svg>
